<svg xmlns="http://www.w3.org/2000/svg" width="33" height="32" viewBox="0 0 33 32" fill="none">
  <path d="M28.5 11H22.425L23.4875 5.17496C23.5105 5.04528 23.5077 4.91234 23.4793 4.78374C23.4509 4.65514 23.3975 4.53338 23.322 4.42544C23.1696 4.20743 22.9369 4.05887 22.675 4.01246C22.4131 3.96605 22.1435 4.02558 21.9255 4.17795C21.7075 4.33032 21.5589 4.56306 21.5125 4.82496L20.3875 11H14.425L15.4875 5.17496C15.5339 4.91306 15.4744 4.64345 15.322 4.42544C15.1696 4.20743 14.9369 4.05887 14.675 4.01246C14.4131 3.96605 14.1435 4.02558 13.9255 4.17795C13.7075 4.33032 13.5589 4.56306 13.5125 4.82496L12.3875 11H5.95C5.68478 11 5.43043 11.1053 5.24289 11.2929C5.05536 11.4804 4.95 11.7347 4.95 12C4.95 12.2652 5.05536 12.5195 5.24289 12.7071C5.43043 12.8946 5.68478 13 5.95 13H12.025L10.9375 19H4.5C4.23478 19 3.98043 19.1053 3.79289 19.2929C3.60536 19.4804 3.5 19.7347 3.5 20C3.5 20.2652 3.60536 20.5195 3.79289 20.7071C3.98043 20.8946 4.23478 21 4.5 21H10.575L9.5125 26.825C9.48912 26.9547 9.49162 27.0877 9.51986 27.2165C9.54809 27.3452 9.60149 27.4671 9.677 27.5752C9.75251 27.6832 9.84864 27.7753 9.95984 27.846C10.0711 27.9168 10.1951 27.9648 10.325 27.9875H10.5C10.7354 27.9882 10.9634 27.9058 11.1441 27.7549C11.3247 27.604 11.4463 27.3942 11.4875 27.1625L12.6125 20.9875H18.575L17.5125 26.8125C17.4891 26.9422 17.4916 27.0752 17.5199 27.204C17.5481 27.3327 17.6015 27.4546 17.677 27.5627C17.7525 27.6707 17.8486 27.7628 17.9598 27.8335C18.071 27.9043 18.1951 27.9523 18.325 27.975H18.5C18.7354 27.9757 18.9634 27.8933 19.1441 27.7424C19.3247 27.5915 19.4463 27.3817 19.4875 27.15L20.6125 20.975H27.05C27.3152 20.975 27.5696 20.8696 27.7571 20.6821C27.9446 20.4945 28.05 20.2402 28.05 19.975C28.05 19.7097 27.9446 19.4554 27.7571 19.2679C27.5696 19.0803 27.3152 18.975 27.05 18.975H20.975L22.0625 12.975H28.5C28.7652 12.975 29.0196 12.8696 29.2071 12.6821C29.3946 12.4945 29.5 12.2402 29.5 11.975C29.5 11.7097 29.3946 11.4554 29.2071 11.2679C29.0196 11.0803 28.7652 10.975 28.5 10.975V11ZM18.9375 19H12.975L14.0625 13H20.025L18.9375 19Z" fill="white"/>
</svg>