<svg width="494" height="324" viewBox="0 0 494 324" fill="none" xmlns="http://www.w3.org/2000/svg">
<path d="M444.556 0.218018H48.942C21.954 0.218018 0 22.171 0 49.16V274.337C0 301.325 21.954 323.279 48.942 323.279H444.555C471.543 323.279 493.496 301.325 493.496 274.337V49.16C493.497 22.171 471.544 0.218018 444.556 0.218018ZM460.87 49.16V274.337C460.87 276.911 460.145 279.261 459.077 281.427L343.74 166.081L460.837 48.984C460.837 49.049 460.87 49.096 460.87 49.16ZM32.628 274.336V49.16C32.628 49.096 32.661 49.05 32.661 48.985L149.758 166.082L34.413 281.426C33.353 279.26 32.628 276.911 32.628 274.336ZM251.784 211.902C249.092 214.593 244.406 214.593 241.714 211.902L62.667 32.846H430.839L251.784 211.902ZM172.827 189.152L218.645 234.971C226.157 242.482 236.138 246.616 246.749 246.616C257.359 246.616 267.341 242.482 274.853 234.971L320.673 189.152L422.163 290.651H71.327L172.827 189.152Z" fill="white"/>
</svg>
