<svg width="151" height="151" viewBox="0 0 151 151" fill="none" xmlns="http://www.w3.org/2000/svg">
<path d="M139.675 2.5166H11.325C5.03343 2.5166 0 7.55003 0 13.8416V95.6332V106.958C0 113.25 5.03343 118.283 11.325 118.283H56.1994C56.556 122.663 54.5797 126.956 51.0881 129.357L46.5581 132.628C46.0913 132.908 45.7291 133.293 45.4829 133.729C42.4042 134.676 40.2666 137.475 40.2666 140.933C40.2666 145.212 43.5381 148.483 47.8166 148.483H103.183C107.462 148.483 110.733 145.212 110.733 140.933C110.733 137.291 108.361 134.379 105.015 133.594C104.801 133.214 104.524 132.879 104.19 132.628L99.6597 129.357C96.1038 126.912 94.3178 122.701 94.6413 118.283H139.675C145.967 118.283 151 113.25 151 106.958V95.6332V13.8416C151 7.55003 145.967 2.5166 139.675 2.5166ZM5.03343 13.8416C5.03343 10.3182 7.80186 7.55003 11.325 7.55003H139.675C143.198 7.55003 145.967 10.3185 145.967 13.8416V90.6H5.03343V13.8416ZM103.183 143.45H47.8166C46.3066 143.45 45.3 142.443 45.3 140.933C45.3 139.423 46.3066 138.417 47.8166 138.417H48.32H102.68H103.183C104.693 138.417 105.7 139.423 105.7 140.933C105.7 142.443 104.693 143.45 103.183 143.45ZM96.3884 133.383H54.36C59.1416 129.86 61.6584 124.072 61.4066 118.283H89.5931C89.09 124.072 91.8584 129.86 96.3884 133.383ZM145.967 106.958C145.967 110.482 143.198 113.25 139.675 113.25H96.64H55.115H11.325C7.80157 113.25 5.03343 110.482 5.03343 106.958V95.6335H145.967V106.958H145.967Z" fill="#F25D59"/>
<path d="M43.79 50.3335L62.1616 31.9619C63.1681 30.9554 63.1681 29.4454 62.1616 28.4385C61.155 27.4316 59.645 27.4319 58.6381 28.4385L38.5047 48.5719C37.7497 49.3269 37.4981 50.3335 38.0013 51.3404C38.2528 51.8438 38.5047 52.0954 38.7563 52.3469L58.6378 72.2285C59.1413 72.7319 59.6444 72.9835 60.3994 72.9835C61.1544 72.9835 61.6578 72.7319 62.161 72.2285C63.1675 71.2219 63.1675 69.7119 62.161 68.7051L43.79 50.3335Z" fill="#F25D59"/>
<path d="M112.243 48.3201L92.3619 28.4385C91.3553 27.432 89.8453 27.432 88.8384 28.4385C87.8316 29.4451 87.8319 30.9551 88.8384 31.962L107.21 50.3335L88.8384 68.7051C87.8319 69.7117 87.8319 71.2217 88.8384 72.2285C89.3419 72.732 89.845 72.9835 90.6 72.9835C91.355 72.9835 91.8584 72.732 92.3616 72.2285L112.495 52.0951C113.25 51.3401 113.502 50.3335 112.998 49.3267C112.747 48.8235 112.495 48.5717 112.243 48.3201Z" fill="#F25D59"/>
<path d="M81.2884 27.935C80.03 27.4316 78.52 28.4384 78.2684 29.6966L68.2019 69.9631C67.6984 71.2216 68.7053 72.7316 69.9634 72.9831C69.9634 72.9831 70.215 72.9831 70.4669 72.9831C71.7253 72.9831 72.7319 72.2281 72.9834 71.2216L83.05 30.955C83.5534 29.6966 82.5466 28.1866 81.2884 27.935Z" fill="#F25D59"/>
</svg>
