<svg width="185" height="185" viewBox="0 0 185 185" fill="none" xmlns="http://www.w3.org/2000/svg">
<g clip-path="url(#clip0_108_292)">
<path d="M146.458 127.188V150.312C146.458 152.441 144.732 154.167 142.604 154.167H11.5625C9.43392 154.167 7.70821 152.441 7.70821 150.312V57.8125C7.70821 55.6839 9.43392 53.9582 11.5625 53.9582H57.8125V46.25H11.5625C5.17675 46.25 0 51.4267 0 57.8125V150.312C0 156.698 5.17675 161.875 11.5625 161.875H142.604C148.99 161.875 154.167 156.698 154.167 150.312V127.188H146.458Z" fill="#F25D59"/>
<path d="M96.3543 158.021V177.291H57.8125V158.021H50.1043V181.146C50.1043 183.274 51.83 185 53.9586 185H100.209C102.337 185 104.063 183.274 104.063 181.146V158.021H96.3543Z" fill="#F25D59"/>
<path d="M111.771 177.292H42.3957V185H111.771V177.292Z" fill="#F25D59"/>
<path d="M173.437 0H65.5207C59.135 0 53.9582 5.17675 53.9582 11.5625V119.479C53.9582 125.865 59.135 131.042 65.5207 131.042H173.437C179.823 131.042 185 125.865 185 119.479V11.5625C185 5.17675 179.823 0 173.437 0ZM177.292 119.479C177.292 121.608 175.566 123.334 173.437 123.334H65.5207C63.3921 123.334 61.6664 121.608 61.6664 119.479V11.5625C61.6664 9.43392 63.3921 7.70821 65.5207 7.70821H173.437C175.566 7.70821 177.292 9.43392 177.292 11.5625V119.479Z" fill="#F25D59"/>
<path d="M77.0832 15.4167H69.375V23.125H77.0832V15.4167Z" fill="#F25D59"/>
<path d="M92.5 15.4167H84.7918V23.125H92.5V15.4167Z" fill="#F25D59"/>
<path d="M107.916 15.4167H100.208V23.125H107.916V15.4167Z" fill="#F25D59"/>
<path d="M154.167 30.8333H57.8125V38.5415H154.167V30.8333Z" fill="#F25D59"/>
<path d="M50.1043 131.042H3.85428V138.75H50.1043V131.042Z" fill="#F25D59"/>
<path d="M26.9793 61.6667C20.5935 61.6667 15.4168 66.8435 15.4168 73.2292V80.9375H23.125V73.2292C23.125 71.1007 24.8507 69.375 26.9793 69.375H34.6875V61.6667H26.9793Z" fill="#F25D59"/>
<path d="M23.125 88.6458H15.4168V96.354H23.125V88.6458Z" fill="#F25D59"/>
<path d="M104.062 46.25H80.9375C74.5517 46.25 69.375 51.4267 69.375 57.8125V65.5207C69.375 71.9065 74.5517 77.0832 80.9375 77.0832H104.062C110.448 77.0832 115.625 71.9065 115.625 65.5207V57.8125C115.625 51.4267 110.448 46.25 104.062 46.25ZM107.917 65.5207C107.917 67.6493 106.191 69.375 104.062 69.375H80.9375C78.8089 69.375 77.0832 67.6493 77.0832 65.5207V57.8125C77.0832 55.6839 78.8089 53.9582 80.9375 53.9582H104.062C106.191 53.9582 107.917 55.6839 107.917 57.8125V65.5207Z" fill="#F25D59"/>
<path d="M158.021 46.25H134.896C128.51 46.25 123.333 51.4267 123.333 57.8125V65.5207C123.333 71.9065 128.51 77.0832 134.896 77.0832H158.021C164.406 77.0832 169.583 71.9065 169.583 65.5207V57.8125C169.583 51.4267 164.406 46.25 158.021 46.25ZM161.875 65.5207C161.875 67.6493 160.149 69.375 158.021 69.375H134.896C132.767 69.375 131.041 67.6493 131.041 65.5207V57.8125C131.041 55.6839 132.767 53.9582 134.896 53.9582H158.021C160.149 53.9582 161.875 55.6839 161.875 57.8125V65.5207Z" fill="#F25D59"/>
<path d="M104.062 84.7917H80.9375C74.5517 84.7917 69.375 89.9685 69.375 96.3542V104.062C69.375 110.448 74.5517 115.625 80.9375 115.625H104.062C110.448 115.625 115.625 110.448 115.625 104.062V96.3542C115.625 89.9685 110.448 84.7917 104.062 84.7917ZM107.917 104.062C107.917 106.191 106.191 107.917 104.062 107.917H80.9375C78.8089 107.917 77.0832 106.191 77.0832 104.062V96.3542C77.0832 94.2257 78.8089 92.5 80.9375 92.5H104.062C106.191 92.5 107.917 94.2257 107.917 96.3542V104.062Z" fill="#F25D59"/>
<path d="M158.021 84.7917H134.896C128.51 84.7917 123.333 89.9685 123.333 96.3542V104.062C123.333 110.448 128.51 115.625 134.896 115.625H158.021C164.406 115.625 169.583 110.448 169.583 104.062V96.3542C169.583 89.9685 164.406 84.7917 158.021 84.7917ZM161.875 104.062C161.875 106.191 160.149 107.917 158.021 107.917H134.896C132.767 107.917 131.041 106.191 131.041 104.062V96.3542C131.041 94.2257 132.767 92.5 134.896 92.5H158.021C160.149 92.5 161.875 94.2257 161.875 96.3542V104.062Z" fill="#F25D59"/>
<path d="M169.583 30.8333H161.875V38.5415H169.583V30.8333Z" fill="#F25D59"/>
</g>
<defs>
<clipPath id="clip0_108_292">
<rect width="185" height="185" fill="white"/>
</clipPath>
</defs>
</svg>
