<svg width="26" height="27" viewBox="0 0 26 27" fill="none" xmlns="http://www.w3.org/2000/svg">
<path d="M9.875 22.1667C3.83333 23.9167 3.83333 19.25 1.41666 18.6667M18.3333 25.6667V21.1517C18.3787 20.5954 18.3008 20.0361 18.105 19.5111C17.9091 18.9861 17.5998 18.5073 17.1975 18.1067C20.9917 17.6983 24.9792 16.31 24.9792 9.94C24.9789 8.31113 24.3299 6.74473 23.1667 5.565C23.7175 4.13992 23.6785 2.56474 23.0579 1.16667C23.0579 1.16667 21.6321 0.758334 18.3333 2.89333C15.5638 2.16863 12.6445 2.16863 9.875 2.89333C6.57625 0.758334 5.15041 1.16667 5.15041 1.16667C4.52979 2.56474 4.49084 4.13992 5.04166 5.565C3.86973 6.75348 3.22013 8.33404 3.22916 9.975C3.22916 16.2983 7.21666 17.6867 11.0108 18.1417C10.6133 18.5383 10.3067 19.0113 10.111 19.5299C9.9153 20.0485 9.83489 20.6011 9.875 21.1517V25.6667" stroke="white" stroke-width="2" stroke-linecap="round" stroke-linejoin="round"/>
</svg>
