<svg width="29" height="29" viewBox="0 0 29 29" fill="none" xmlns="http://www.w3.org/2000/svg">
<path d="M14.7854 29.0003C14.6894 29.0003 14.5934 29.0003 14.4967 28.9998C12.2235 29.0054 10.1232 28.9476 8.0806 28.8233C6.20791 28.7093 4.49852 28.0622 3.13693 26.9519C1.82314 25.8806 0.925957 24.4321 0.470398 22.647C0.0739136 21.0929 0.0528946 19.5674 0.0327606 18.0919C0.0181579 17.0332 0.00311279 15.7787 1.52588e-05 14.5029C0.00311279 13.2219 0.0181579 11.9674 0.0327606 10.9087C0.0528946 9.43337 0.0739136 7.90783 0.470398 6.35353C0.925957 4.56847 1.82314 3.11993 3.13693 2.04862C4.49852 0.93838 6.20791 0.291217 8.08082 0.177272C10.1234 0.0531494 12.2242 -0.00481874 14.5022 0.000712576C16.776 -0.00415498 18.8757 0.0531494 20.9183 0.177272C22.791 0.291217 24.5004 0.93838 25.862 2.04862C27.176 3.11993 28.073 4.56847 28.5285 6.35353C28.925 7.90761 28.946 9.43337 28.9662 10.9087C28.9808 11.9674 28.996 13.2219 28.9989 14.4976V14.5029C28.996 15.7787 28.9808 17.0332 28.9662 18.0919C28.946 19.5672 28.9252 21.0927 28.5285 22.647C28.073 24.4321 27.176 25.8806 25.862 26.9519C24.5004 28.0622 22.791 28.7093 20.9183 28.8233C18.9622 28.9423 16.9528 29.0003 14.7854 29.0003ZM14.4967 26.7342C16.7329 26.7395 18.7861 26.6831 20.7807 26.5618C22.1967 26.4758 23.4244 26.0162 24.4303 25.1961C25.36 24.4378 26.0003 23.3917 26.3333 22.0868C26.6634 20.7931 26.6824 19.4041 26.7008 18.0609C26.7151 17.0093 26.7302 15.7636 26.7333 14.5003C26.7302 13.2367 26.7151 11.9913 26.7008 10.9397C26.6824 9.59643 26.6634 8.20741 26.3333 6.91352C26.0003 5.60858 25.36 4.56249 24.4303 3.80426C23.4244 2.9843 22.1967 2.52476 20.7807 2.43869C18.7861 2.31723 16.7329 2.26125 14.502 2.26612C12.2662 2.26081 10.2128 2.31723 8.21821 2.43869C6.8022 2.52476 5.57447 2.9843 4.56866 3.80426C3.63895 4.56249 2.99865 5.60858 2.66566 6.91352C2.33556 8.20741 2.31653 9.59621 2.29816 10.9397C2.28378 11.9922 2.26874 13.2385 2.26564 14.5029C2.26874 15.7618 2.28378 17.0084 2.29816 18.0609C2.31653 19.4041 2.33556 20.7931 2.66566 22.0868C2.99865 23.3917 3.63895 24.4378 4.56866 25.1961C5.57447 26.016 6.8022 26.4756 8.21821 26.5616C10.2128 26.6831 12.2667 26.7397 14.4967 26.7342ZM14.4427 21.5803C10.5389 21.5803 7.36263 18.4043 7.36263 14.5003C7.36263 10.5963 10.5389 7.42019 14.4427 7.42019C18.3467 7.42019 21.5228 10.5963 21.5228 14.5003C21.5228 18.4043 18.3467 21.5803 14.4427 21.5803ZM14.4427 9.68582C11.7881 9.68582 9.62826 11.8457 9.62826 14.5003C9.62826 17.1549 11.7881 19.3147 14.4427 19.3147C17.0975 19.3147 19.2572 17.1549 19.2572 14.5003C19.2572 11.8457 17.0975 9.68582 14.4427 9.68582ZM22.3158 5.15457C21.3774 5.15457 20.6165 5.91523 20.6165 6.85379C20.6165 7.79234 21.3774 8.553 22.3158 8.553C23.2543 8.553 24.015 7.79234 24.015 6.85379C24.015 5.91523 23.2543 5.15457 22.3158 5.15457Z" fill="white"/>
</svg>
