<svg xmlns="http://www.w3.org/2000/svg" width="47" height="42" viewBox="0 0 47 42" fill="none">
  <path d="M32.709 0.194571C31.9371 0.168616 31.1292 0.303191 30.3191 0.565821C28.699 1.09108 27.0012 2.11469 25.2589 3.53195C24.5761 4.08738 23.8871 4.72229 23.1957 5.39594C22.5197 4.73939 21.8448 4.11959 21.1771 3.57643C19.4362 2.1603 17.743 1.13823 16.1265 0.614161C14.51 0.0900899 12.9016 0.0738509 11.5806 0.836524C10.2597 1.5992 9.4697 2.99922 9.11531 4.66117C8.76093 6.32312 8.79803 8.30229 9.15398 10.518C9.27762 11.2877 9.45589 12.0951 9.65672 12.9176C8.90191 13.1464 8.16889 13.3869 7.48916 13.6524C5.43778 14.4536 3.7404 15.4121 2.50436 16.5528C1.26832 17.6934 0.470215 19.0778 0.470215 20.5979C0.470215 22.1179 1.26832 23.5004 2.50436 24.641C3.7404 25.7816 5.43778 26.7421 7.48916 27.5433C8.21599 27.8272 9.00291 28.0828 9.81527 28.3245C9.52307 29.4163 9.28632 30.4758 9.12498 31.4801C8.76874 33.6976 8.73113 35.6771 9.08631 37.3428C9.4415 39.0085 10.2319 40.4164 11.5594 41.1829C12.8869 41.9493 14.5025 41.9305 16.1227 41.4053C17.7428 40.88 19.4386 39.8583 21.1809 38.4411C21.8575 37.8907 22.5418 37.263 23.2267 36.5964C23.9148 37.2666 24.6026 37.898 25.2821 38.4507C27.023 39.8669 28.7181 40.8889 30.3346 41.413C31.9511 41.9371 33.5575 41.9533 34.8785 41.1906C36.1995 40.428 36.9895 39.0279 37.3438 37.366C37.6982 35.704 37.6592 33.7249 37.3032 31.5091C37.1415 30.5021 36.9046 29.441 36.611 28.3458C37.4502 28.0982 38.262 27.8357 39.0106 27.5433C41.062 26.7421 42.7594 25.7816 43.9954 24.641C45.2314 23.5004 46.0296 22.1179 46.0296 20.5979C46.0296 19.0778 45.2314 17.6934 43.9954 16.5528C42.7594 15.4121 41.062 14.4536 39.0106 13.6524C38.3211 13.3831 37.5769 13.1394 36.8102 12.908C37.0126 12.0804 37.1924 11.2672 37.3168 10.4929C37.673 8.27538 37.7106 6.29402 37.3554 4.6283C37.0003 2.96258 36.208 1.55656 34.8805 0.790118C34.2167 0.406896 33.4809 0.220526 32.709 0.194571ZM32.6181 2.20938C33.1025 2.22262 33.5157 2.33788 33.8692 2.54195C34.5761 2.95009 35.0986 3.74443 35.3774 5.05176C35.6561 6.35908 35.6465 8.12542 35.3174 10.1738C35.2048 10.8752 35.0412 11.6185 34.8553 12.3801C32.8308 11.8929 30.6125 11.5311 28.2482 11.3185C27.0605 9.67292 25.8397 8.17595 24.6092 6.84613C25.2598 6.21109 25.9061 5.61715 26.537 5.10397C28.1465 3.79476 29.6702 2.90392 30.9417 2.49168C31.5775 2.28556 32.1338 2.19613 32.6181 2.20938ZM13.8313 2.21518C14.3185 2.20158 14.876 2.29076 15.5136 2.49748C16.7888 2.91092 18.3152 3.80136 19.926 5.1117C20.5441 5.61446 21.1763 6.19545 21.8132 6.8152C20.5739 8.15556 19.3445 9.66821 18.1491 11.3282C15.7932 11.5447 13.5828 11.9099 11.5671 12.3994C11.3824 11.6415 11.221 10.9011 11.1088 10.2029C10.7795 8.15264 10.7713 6.38413 11.0508 5.07303C11.3304 3.76193 11.8572 2.96353 12.5706 2.55162C12.9274 2.34567 13.3442 2.22878 13.8313 2.21518ZM23.2267 8.27119C24.033 9.14873 24.8399 10.1093 25.6398 11.1426C24.8537 11.1098 24.058 11.0904 23.2499 11.0904C22.4257 11.0904 21.6148 11.1104 20.8136 11.1445C21.6138 10.1103 22.42 9.14948 23.2267 8.27119ZM23.2499 13.0897C24.5962 13.0897 25.9084 13.145 27.1847 13.2386C28.063 14.5 28.9212 15.8382 29.739 17.2547C30.4576 18.4992 31.1078 19.7419 31.6997 20.9691C31.1016 22.2126 30.4404 23.472 29.712 24.7338C29.0707 25.8445 28.401 26.8994 27.7204 27.9165C26.2786 28.037 24.7847 28.1041 23.2499 28.1041C21.6781 28.1041 20.1507 28.033 18.6769 27.9068C18.0076 26.9044 17.3492 25.8635 16.7182 24.7705C15.9914 23.5117 15.3334 22.2564 14.7363 21.0155C15.3359 19.7676 15.9968 18.5034 16.7279 17.2373C17.5414 15.8283 18.3971 14.4978 19.2705 13.2425C20.5607 13.1468 21.8881 13.0897 23.2499 13.0897ZM29.7352 13.4861C31.3664 13.6897 32.8981 13.9726 34.3236 14.3117C33.9004 15.6989 33.3792 17.1478 32.7477 18.643C32.3377 17.8526 31.913 17.0594 31.4541 16.2647C30.8984 15.3021 30.3205 14.3828 29.7352 13.4861ZM16.6602 13.5016C16.0869 14.382 15.5228 15.2824 14.978 16.226C14.5132 17.031 14.0797 17.8347 13.6651 18.6353C13.039 17.149 12.5209 15.7084 12.1008 14.3291C13.5162 13.9892 15.0396 13.7075 16.6602 13.5016ZM36.2823 14.8377C36.9841 15.05 37.6619 15.2716 38.2836 15.5144C40.1746 16.253 41.6705 17.1276 42.64 18.0223C43.6095 18.917 44.0302 19.7702 44.0302 20.5979C44.0302 21.4255 43.6095 22.2787 42.64 23.1734C41.6705 24.0681 40.1746 24.9427 38.2836 25.6813C37.5927 25.9511 36.8336 26.1958 36.0445 26.4276C35.4815 24.6864 34.763 22.8699 33.9079 21.0155C34.8911 18.8865 35.6854 16.8106 36.2823 14.8377ZM10.1846 14.8473C10.7747 16.8006 11.5588 18.8559 12.5281 20.9633C11.6673 22.8285 10.9453 24.6554 10.3799 26.4064C9.61853 26.1806 8.88519 25.9426 8.21619 25.6813C6.32514 24.9427 4.8293 24.0681 3.8598 23.1734C2.89031 22.2787 2.46955 21.4255 2.46955 20.5979C2.46955 19.7702 2.89031 18.917 3.8598 18.0223C4.8293 17.1276 6.32514 16.253 8.21619 15.5144C8.82833 15.2753 9.49474 15.0569 10.1846 14.8473ZM32.7728 23.3397C33.292 24.5685 33.7434 25.7709 34.1225 26.9304C32.9319 27.2064 31.6642 27.4391 30.3307 27.6226C30.7146 27.0101 31.0936 26.3862 31.4638 25.7451C31.9278 24.9414 32.3587 24.1388 32.7728 23.3397ZM13.6883 23.3416C14.1046 24.1457 14.5382 24.9519 15.005 25.7605C15.3705 26.3936 15.7438 27.0117 16.1227 27.6168C14.7931 27.4324 13.5293 27.199 12.3425 26.9226C12.7199 25.7667 13.1714 24.5668 13.6883 23.3416ZM11.7721 28.8446C13.5638 29.2691 15.5058 29.5951 17.5651 29.8076C18.9401 31.7962 20.3716 33.5822 21.8132 35.1443C21.1687 35.7727 20.5299 36.3624 19.9048 36.871C18.2953 38.1802 16.7697 39.0691 15.4981 39.4813C14.2265 39.8936 13.2776 39.8392 12.5706 39.4311C11.8637 39.0229 11.3431 38.2286 11.0644 36.9212C10.7856 35.6139 10.7933 33.8495 11.1224 31.8011C11.2717 30.8718 11.4948 29.8768 11.7721 28.8446ZM34.6948 28.8524C34.9742 29.8902 35.1983 30.89 35.3484 31.8243C35.6777 33.8745 35.686 35.6411 35.4064 36.9522C35.1268 38.2633 34.602 39.0636 33.8885 39.4755C33.1751 39.8874 32.2189 39.9431 30.9437 39.5297C29.6684 39.1162 28.142 38.2239 26.5312 36.9135C25.9015 36.4013 25.2583 35.8087 24.6092 35.1752C26.0602 33.6073 27.5024 31.8116 28.8863 29.8114C30.9508 29.6004 32.8982 29.2763 34.6948 28.8524ZM20.1484 30.0106C21.1649 30.066 22.1948 30.1034 23.2499 30.1034C24.2701 30.1034 25.2666 30.0682 26.2508 30.0164C25.2447 31.3738 24.2191 32.6079 23.1977 33.7192C22.1768 32.6056 21.1532 31.3693 20.1484 30.0106Z" fill="white"/>
</svg>