<svg width="29" height="25" viewBox="0 0 29 25" fill="none" xmlns="http://www.w3.org/2000/svg">
<path d="M29 3.49414C27.9141 3.97536 26.7244 4.261 25.5449 4.40039C26.787 3.65676 27.7063 2.49297 28.1504 1.11523C26.9824 1.8082 25.7527 2.32526 24.4203 2.58789C23.2689 1.36348 21.7219 0.71875 20.1641 0.71875C18.6348 0.71875 17.1736 1.23449 16.0021 2.33633C14.7932 3.47312 14.1059 5.04578 14.1035 6.66602C14.1029 7.11693 14.1763 7.57138 14.2807 8.02119C9.49682 7.78135 5.06026 5.51196 2.03906 1.79492C1.49146 2.73768 1.18879 3.77889 1.18945 4.79688C1.19078 6.71425 2.14371 8.58405 3.85156 9.72461C2.9046 9.69651 1.9603 9.50623 1.13281 9.04492V9.15334C1.1337 11.9856 3.17099 14.318 5.94727 14.8789C5.45675 15.0128 4.82065 15.1075 4.30978 15.1075C4.30801 15.1075 4.30624 15.1075 4.30469 15.1075C3.90533 15.1068 3.50597 15.0674 3.11523 14.9922C3.89471 17.416 6.29043 19.1924 8.83594 19.2402C6.72917 20.8961 3.45508 21.6758 1.41646 21.6758C0.942978 21.6749 0.46994 21.6753 0 21.6191C2.71455 23.3611 5.87226 24.2813 9.09724 24.2813H9.1198V24.2859C19.9941 24.2859 26.0547 15.2168 26.0547 7.35411C26.0547 7.09657 26.0155 6.80784 25.998 6.55273C27.1625 5.71043 28.2011 4.6889 29 3.49414ZM22.818 12.5168C22.1507 14.2855 21.1918 15.8838 19.968 17.2675C18.6704 18.7347 17.1333 19.8865 15.4001 20.6908C13.6165 21.5183 11.6469 21.963 9.53996 22.015L9.11582 22.0156H9.09724C8.97466 22.0156 8.85231 22.0141 8.73018 22.011C9.26318 21.7167 9.77051 21.3873 10.2358 21.0215C11.4053 19.9352 11.9273 18.559 12.1211 17.0359C12.1211 17.0359 11.1677 17.1518 10.082 17.1445C9.24083 17.1388 8.32042 17.0697 7.7018 16.7487C9.24127 16.0566 10.0504 14.9092 10.3796 13.4629C9.0625 13.5762 6.00391 12.8965 4.90672 12.0225C6.11719 11.5938 7.25 10.6875 7.70312 9.95117C7.70312 9.95117 5.55078 8.93164 4.03144 6.74589C6.98251 8.85155 10.4969 10.1001 14.1675 10.2839L17.1621 10.4043L16.5426 7.74573L16.4269 7.21848C16.3879 7.00475 16.3689 6.82355 16.3691 6.66933C16.3705 5.67149 16.8026 4.69355 17.5542 3.98665C18.2613 3.32156 19.1394 2.98438 20.1641 2.98438C20.921 2.98438 21.6684 3.24324 22.2887 3.7092C23.2793 4.57031 23.7891 5.70313 23.7891 7.35411C23.7891 9.04824 23.4532 10.8335 22.818 12.5168Z" fill="white"/>
</svg>
