<svg width="162" height="157" viewBox="0 0 162 157" fill="none" xmlns="http://www.w3.org/2000/svg">
<path d="M158.621 26.1727H124.872V22.9019C124.872 22.2304 124.663 21.6064 124.305 21.0869L124.306 21.0866L117.556 11.2746C117.355 11.0143 117.117 10.7834 116.848 10.589C115.298 9.46489 113.1 9.77183 111.94 11.2746L105.19 21.0866L105.191 21.0869C104.833 21.6064 104.623 22.2301 104.623 22.9019V26.1727H94.4989V3.27779C94.4989 1.47145 92.9878 0.00700629 91.124 0.00700629H70.8749C69.011 0.00700629 67.5 1.47145 67.5 3.27779V26.1727H57.3754C57.3754 25.8608 57.3277 25.56 57.2435 25.2742L57.2473 25.2733L50.4977 2.37845C50.1782 1.28748 49.2983 0.43475 48.1726 0.125057C46.3796 -0.367998 44.5135 0.640803 44.0047 2.37845L37.2548 25.2733L37.2586 25.2742C37.1745 25.56 37.1267 25.8605 37.1267 26.1727H3.37817C1.51431 26.1727 0.00322342 27.6371 0.00322342 29.4434V121.022C0.00322342 122.829 1.51431 124.293 3.37817 124.293H44.2183C45.7889 131.752 52.5919 137.366 60.7507 137.376V141.059C55.9169 142.276 52.266 145.935 51.0574 150.459H40.5016V157H121.498V150.458H110.942C109.733 145.935 106.083 142.276 101.249 141.058V137.376C109.408 137.366 116.211 131.752 117.781 124.293H158.621C160.485 124.293 161.996 122.828 161.996 121.022V29.4434C161.996 27.6368 160.485 26.1727 158.621 26.1727ZM111.373 85.0449V39.2555H118.123V85.0449H111.373ZM118.123 26.1727V32.7139H111.373V26.1727H118.123ZM104.623 32.7139V85.0449H94.4989V32.7139H104.623ZM87.7493 6.54857V85.0449H74.2499V75.2328H80.9994V68.6916H74.2499V58.8796H80.9994V52.338H74.2499V42.526H80.9994V35.9847H74.2499V26.1727H80.9994V19.6314H74.2499V6.54857H87.7493ZM67.5003 32.7139V85.0449H57.3757V32.7139H67.5003ZM43.8763 29.4434H50.6259V85.0449H43.8763V29.4434ZM47.2512 15.1832L49.5254 22.9019H44.9767L47.2512 15.1832ZM37.1267 32.7139V85.0449H30.3771V91.5862H131.622V85.0449H124.873V32.7139H155.246V101.398H6.75312V32.7139H37.1267ZM101.249 130.834H97.8739C96.01 130.834 94.4989 132.299 94.4989 134.105V143.917C94.4989 145.723 96.01 147.188 97.8739 147.188C100.371 147.188 102.546 148.505 103.713 150.459H58.286C59.4535 148.505 61.6284 147.188 64.1253 147.188C65.9892 147.188 67.5003 145.723 67.5003 143.917V137.376H80.9998V130.834H64.1256H60.7507C56.3427 130.834 52.5948 128.104 51.2045 124.293H110.795C109.405 128.104 105.657 130.834 101.249 130.834ZM6.75312 117.752V107.94H155.246V117.752H6.75312Z" fill="#F25D59"/>
</svg>
