<svg width="29" height="22" viewBox="0 0 29 22" fill="none" xmlns="http://www.w3.org/2000/svg">
<path d="M14.4989 21.0347C14.4965 21.0347 14.4938 21.0347 14.4912 21.0347C13.6161 21.0288 5.88023 20.9582 3.6885 20.3654C2.15677 19.9537 0.94762 18.7459 0.534762 17.2139C-0.0387251 15.0609 -0.0022184 10.9157 0.00176415 10.5847C-0.00199715 10.2553 -0.0389464 6.07583 0.532992 3.90512C0.533656 3.90312 0.534098 3.90091 0.534762 3.89892C0.942974 2.38445 2.17933 1.13923 3.68474 0.726377C3.6885 0.72527 3.69248 0.724385 3.69624 0.723279C5.86319 0.153774 13.6143 0.0840798 14.4912 0.0781059H14.5069C15.3841 0.0840798 23.1406 0.154659 25.3122 0.748281C26.84 1.15893 28.0482 2.3652 28.4622 3.89516C29.0571 6.06742 29.002 10.256 28.9961 10.6095C29.0003 10.9578 29.035 15.0658 28.4648 17.2296C28.4644 17.2318 28.4637 17.2338 28.4633 17.2358C28.0502 18.7678 26.8413 19.9756 25.3078 20.3878C25.3058 20.3885 25.3036 20.3889 25.3016 20.3896C23.1349 20.9588 15.3835 21.0285 14.5069 21.0347C14.5042 21.0347 14.5016 21.0347 14.4989 21.0347ZM2.72295 4.48613C2.21938 6.40218 2.26695 10.5283 2.26739 10.5699V10.5998C2.25235 11.7441 2.30523 15.058 2.72317 16.6276C2.92584 17.3792 3.52212 17.9746 4.27836 18.1779C5.8955 18.6153 12.1961 18.753 14.4989 18.7691C16.8077 18.753 23.1176 18.6191 24.7228 18.1992C25.4766 17.9952 26.0709 17.4018 26.2749 16.6493C26.6933 15.0567 26.7457 11.7589 26.7304 10.6219C26.7304 10.61 26.7304 10.598 26.7307 10.5861C26.7515 9.42803 26.7105 6.07539 26.2769 4.49321C26.2764 4.49166 26.276 4.49011 26.2758 4.48856C26.0722 3.73364 25.4757 3.13825 24.7195 2.93492C23.118 2.49706 16.8072 2.35989 14.4989 2.34373C12.1917 2.35989 5.88797 2.49352 4.27792 2.91302C3.53606 3.11878 2.92628 3.73541 2.72295 4.48613ZM27.3694 16.9411H27.3701H27.3694ZM11.6113 15.1441V5.96852L19.541 10.5564L11.6113 15.1441Z" fill="white"/>
</svg>
